<svg width="24" height="24" viewBox="0 0 24 24" xmlns="http://www.w3.org/2000/svg" class="default-ltr-cache-4z3qvp e1svuwfo1" data-name="InternetSpeed" aria-labelledby=":rcb:" aria-hidden="true">
  <path fill-rule="evenodd" clip-rule="evenodd" d="M19.0569 6.27006C15.1546 2.20629 8.84535 2.20629 4.94312 6.27006C1.01896 10.3567 1.01896 16.9985 4.94312 21.0852L3.50053 22.4704C-1.16684 17.6098 -1.16684 9.7454 3.50053 4.88481C8.18984 0.0013696 15.8102 0.0013696 20.4995 4.88481C25.1668 9.7454 25.1668 17.6098 20.4995 22.4704L19.0569 21.0852C22.981 16.9985 22.981 10.3567 19.0569 6.27006ZM15 14.0001C15 15.6569 13.6569 17.0001 12 17.0001C10.3431 17.0001 9 15.6569 9 14.0001C9 12.3432 10.3431 11.0001 12 11.0001C12.4632 11.0001 12.9018 11.105 13.2934 11.2924L16.2929 8.29296L17.7071 9.70717L14.7076 12.7067C14.895 13.0983 15 13.5369 15 14.0001Z" fill="white"></path>
</svg>